<svg xmlns="http://www.w3.org/2000/svg" xml:space="preserve" style="enable-background:new 0 0 311.81 198.43" viewBox="0 0 311.81 198.43"><path d="m118.04 81.64-9.33 24.61c-.01-7.94-7.85-9.56-10.39-10.18-8.78-2.26-10.44-2.59-10.44-5.29.01-2.94 2.85-3.97 5.29-3.97 3.69 0 6.67 1.08 6.92 5.28h7.45c-.01-8.08-6.72-11.26-14.01-11.26-6.25-.01-12.9 3.35-13.07 10.31-.52-7.37-6.97-10.31-13.98-10.3-6.31 0-13.07 3.43-13.07 10.59.01 6.57 5.24 8.57 10.44 9.94 5.15 1.38 10.39 2.01 10.38 5.77.01 3.58-4.1 4.36-6.79 4.37-4.13.01-7.75-1.82-7.75-6.47l-7.36.01-8.75-23.37H35.7l-13.26 34.99 7.79-.02 2.74-7.78h13.09l2.64 7.79h7.98l-1.22-3.28c2.82 2.8 7.16 4.1 11.68 4.1 7 .01 11.58-2.61 13.5-6.56 2.45 4.5 7.85 6.55 13.54 6.55 5.49 0 9.49-1.61 11.88-4.21l-1.28 3.37h7.79l2.75-7.79 13.09-.01 2.64 7.79h7.99l-13.1-34.98h-7.9zm-83.08 21.49 4.56-12.83h.1l4.41 12.83h-9.07zm59.49 8.36c-4.11.01-7.74-1.81-7.75-6.45l-5.1-.01c-.76-6.88-7.9-8.36-10.32-8.96-8.75-2.25-10.43-2.6-10.44-5.29.01-2.94 2.85-3.98 5.29-3.97 3.68 0 6.66 1.07 6.92 5.28h7.42c.36 6.02 5.39 7.94 10.4 9.25 5.15 1.37 10.4 2 10.4 5.78 0 3.58-4.12 4.37-6.82 4.37m22.86-8.39 4.56-12.83h.09l4.42 12.83h-9.07zm83.76-5.52c3.04-1.47 4.75-3.88 4.76-7.31-.01-6.51-4.52-8.68-11.19-8.67l-16.47.01.02 32.4-12.13-32.4-7.9.01-13.27 35 7.8-.01 2.73-7.8 13.1.01 2.64 7.78 7.99-.01-.01-.01h16c6.32-.01 12.34-3.05 12.35-10.15.01-4.35-2.16-7.63-6.42-8.85m-43.63 5.5L162 90.25l.1-.01 4.41 12.85-9.07-.01zm28.44-15.5h7.2c2.73 0 5.29.68 5.3 4.02-.01 2.94-2.02 4.17-4.7 4.17l-7.8.02v-8.21zm8.25 23.03-8.24.01-.01-9.61 8.38-.01c3.28-.01 5.54 1.43 5.53 5 .01 3.64-2.64 4.61-5.66 4.61m49.4-29.84c-10.82-.01-17.2 8.07-17.19 18.47.01 4.08 1.07 7.82 3.02 10.85l-12.94.04-.1-28.62-7.69.04.1 35.03 22.25-.09-.03-4.31c2.94 3.24 7.22 5.24 12.6 5.23 10.83 0 17.19-8.09 17.18-18.18.01-10.4-6.38-18.47-17.2-18.46m.01 30.18c-6.91 0-9.5-5.88-9.51-11.71 0-6.12 2.59-12.01 9.5-12.01s9.51 5.88 9.52 11.99c.01 5.85-2.6 11.72-9.51 11.73m36.77-29.38-8.13 13.83-8.19-13.81-8.67-.01 12.88 21.35.02 13.63 7.69.01-.01-13.44 12.99-21.55-8.58-.01z" style="fill:#231f20"/></svg>