<svg xmlns="http://www.w3.org/2000/svg" viewBox="0 0 730.35 135.17"><path d="M782.62,246c-5.2-6.73-13.9-10.44-24.49-10.44a40,40,0,0,0-21,5.57,26.38,26.38,0,0,0-16.82-5.57,26,26,0,0,0-11.08,2.48,23.61,23.61,0,0,0-12.18-2.45,27.34,27.34,0,0,0-8,1.8,13.13,13.13,0,0,0-2.86-.32h-14a13.23,13.23,0,0,0-8.07,2.77c-4.95-2.85-11.12-4.29-18.36-4.29h-.44a44,44,0,0,0-17.51,3.48l.24-1.12a13.23,13.23,0,0,0-13-16H600.07a13.3,13.3,0,0,0-13,10.49l-1.19,5.62a11.71,11.71,0,0,0-1.59.78,35.73,35.73,0,0,0-15.47-3.26,41.52,41.52,0,0,0-16,3.06,13.09,13.09,0,0,0-6.19-1.55H531.92a13.19,13.19,0,0,0-5.26,1.1,13.23,13.23,0,0,0-5.26-1.1h-6.25a26.3,26.3,0,0,0-4.35-8.73c-3.83-5-11.26-11-24.89-11-19.81,0-34.07,11.46-38.14,30.64-.1.47-.17.93-.26,1.4a20.91,20.91,0,0,0-2.79-4.54c-6.69-8.26-17.32-9.32-25.83-9.32-9.74,0-18.21,2.59-24.68,7.52-7.75-7.35-18.8-7.48-22.66-7.52-9.94,0-18.05,2.7-24.17,8-5.23-5.34-12.89-8-22.79-8A43.38,43.38,0,0,0,309,238.28a23.71,23.71,0,0,0-4.48-8.89c-5.59-6.91-14.41-10.27-26.95-10.27H256A13.3,13.3,0,0,0,243,229.61l-6,28.31H203.74c.09-.27.19-.53.27-.81h0c3-11.14,1.53-21.34-4.13-28.73-3.83-5-11.25-11-24.88-11-9.44,0-17.78,2.66-24.36,7.71a12.29,12.29,0,0,0-.91-1.27A13.21,13.21,0,0,0,139.41,219l-18.22.09a13.17,13.17,0,0,0-2.11.2,12,12,0,0,0-2-.18l-39.81.21a13.32,13.32,0,0,0-12.89,10.51l-3,14.18A13.26,13.26,0,0,0,69,258.86L60.2,300.63a13.24,13.24,0,0,0,13,16l18.23-.09a13,13,0,0,0,7.49-2.4,13.11,13.11,0,0,0,7.47,2.33l29.3-.15a13,13,0,0,0,6.2-1.61A37.79,37.79,0,0,0,159,318.32c19.13,0,33.18-10.74,38.14-28.87h33.14l-2.37,11.17a13.23,13.23,0,0,0,13,16h23.48c9.73,0,18-2.42,24.5-7.19,3.89,4.27,11.05,8.9,23.81,8.9,9.81,0,18.25-2.75,24.6-8,5.12,5.29,12.62,8,22.34,8,2.23,0,3.83-.14,5-.24L366,318a35,35,0,0,0,16.65-5.87,24.94,24.94,0,0,0,17.1,6.23,30.41,30.41,0,0,0,11.34-2.06,12.81,12.81,0,0,0,3,.35H428.8A13.21,13.21,0,0,0,442,304.7a26,26,0,0,0,2.08,3.05c3.9,4.82,11.56,10.57,25.88,10.57a43.35,43.35,0,0,0,13.55-2.08l-.39,1.8a13.18,13.18,0,0,0,2.6,11.08,13,13,0,0,0,10,4.9h0c.17,0,.33,0,.72.09a40.8,40.8,0,0,0,5.45.39c10.57,0,17.75-3.49,22.92-8.29a11.9,11.9,0,0,0,0,4.9,6.65,6.65,0,0,0-2.9,5.61,12.39,12.39,0,0,0,4.71,9.74c2.66,2.07,6.44,3,11.92,3.05h.07a24.55,24.55,0,0,0,9-1.46c.59-.23,1.15-.5,1.69-.77a6.61,6.61,0,0,0,4.46,1.79h8.06a6.45,6.45,0,0,0,2.56-.54,6.62,6.62,0,0,0,2.57.55l8,0h0a6.58,6.58,0,0,0,3-.73,6.56,6.56,0,0,0,3,.74h8.11a6.6,6.6,0,0,0,5.07-2.39,15.05,15.05,0,0,0,4.15,2,26.17,26.17,0,0,0,7.32.9h0a22.87,22.87,0,0,0,8.3-1.41,19.82,19.82,0,0,0,5.22-3.05,13.25,13.25,0,0,0,3.21,2.51,19.55,19.55,0,0,0,9.49,2h.1a23.87,23.87,0,0,0,10.43-2,21.79,21.79,0,0,0,7.68-6.39,6.57,6.57,0,0,0,1.39-3.46,6.33,6.33,0,0,0,1-2.34l.19-.9c.18-.84.29-1.64.39-2.43.09.09.14.2.23.28a6.61,6.61,0,0,0,4.84,1.77l-1.48,7.1a6.61,6.61,0,0,0,6.47,8l8.15,0h0a6.62,6.62,0,0,0,6.47-5.22,12.77,12.77,0,0,0,5.41,4.38,19.62,19.62,0,0,0,7.94,1.37h.05a20.84,20.84,0,0,0,14.06-5.11,13,13,0,0,0,5,3.8,19.74,19.74,0,0,0,7.94,1.36h0a20.79,20.79,0,0,0,14.09-5.14,14.15,14.15,0,0,0,1.23,1.34,14.39,14.39,0,0,0,5.77,3.06,24.72,24.72,0,0,0,6.57.8H746a22.17,22.17,0,0,0,9.64-2,19.25,19.25,0,0,0,7.23-5.94,20,20,0,0,0,3.69-8,14.58,14.58,0,0,0-.7-8.88,6.54,6.54,0,0,0,1.88-3.41l1.34-6.4a6.61,6.61,0,0,0-.24-3.45A32.91,32.91,0,0,0,782.69,291a27.8,27.8,0,0,0-.5-14.75,13.1,13.1,0,0,0,4.3-6.81C789.45,258.08,786,250.45,782.62,246Z" transform="translate(-58.59 -216.1)" style="fill:#001522"/><path d="M746,351.27a25.89,25.89,0,0,1-7-.84,15.85,15.85,0,0,1-6.29-3.35c-.18-.16-.34-.32-.5-.49a22.16,22.16,0,0,1-13.94,4.63,21.11,21.11,0,0,1-8.52-1.48,14.36,14.36,0,0,1-4.59-3.18,22.13,22.13,0,0,1-13.91,4.6,20.9,20.9,0,0,1-8.52-1.48,14.17,14.17,0,0,1-4.47-3,8,8,0,0,1-6.88,4h-8.16a7.94,7.94,0,0,1-7.76-9.57l1.17-5.6a8.15,8.15,0,0,1-2.5-.86l-.06.28-.19.9a7.92,7.92,0,0,1-1,2.53,7.82,7.82,0,0,1-1.63,3.82,23.18,23.18,0,0,1-8.15,6.76,25.09,25.09,0,0,1-11,2.13c-4.28,0-7.6-.71-10.23-2.16a13.66,13.66,0,0,1-2.67-1.93,20.92,20.92,0,0,1-4.64,2.54,24,24,0,0,1-8.78,1.5,27.25,27.25,0,0,1-7.73-1,15.8,15.8,0,0,1-3.58-1.56,7.93,7.93,0,0,1-5.27,2l-8.11,0a7.85,7.85,0,0,1-3-.61,7.84,7.84,0,0,1-3,.6l-8.06,0a7.69,7.69,0,0,1-2.57-.45,7.58,7.58,0,0,1-2.56.44h-8.07a7.81,7.81,0,0,1-4.63-1.55c-.34.16-.68.3-1,.44a25.68,25.68,0,0,1-9.49,1.55c-5.86,0-9.9-1.07-12.8-3.33a13.66,13.66,0,0,1-5.22-10.76,7.92,7.92,0,0,1,2.78-6.19,11,11,0,0,1-.12-1.29c-5.81,4.42-12.83,6.57-21.34,6.57a42.21,42.21,0,0,1-5.58-.4l-.66-.09h0a14.48,14.48,0,0,1-13.94-17.2,45.29,45.29,0,0,1-11.79,1.5c-14.84,0-22.83-6-26.91-11.06l-.42-.53a14.55,14.55,0,0,1-13.78,9.89H414.12a14.42,14.42,0,0,1-2.93-.3,31.66,31.66,0,0,1-11.44,2,26.3,26.3,0,0,1-17.21-5.88,36.67,36.67,0,0,1-16.41,5.52l-1.45.12c-1.23.1-2.83.24-5.09.24-9.55,0-17.1-2.53-22.44-7.53-6.46,4.93-14.9,7.53-24.5,7.53-12.58,0-19.91-4.43-24-8.48-6.61,4.5-14.79,6.78-24.33,6.78H240.86a14.56,14.56,0,0,1-14.24-17.59l2-9.57H198.14c-5.35,18.09-19.91,28.86-39.14,28.86a39.53,39.53,0,0,1-17.08-3.49,14.35,14.35,0,0,1-6.2,1.45l-29.3.15A14.37,14.37,0,0,1,99,315.68a14.35,14.35,0,0,1-7.49,2.14l-18.23.1a14.56,14.56,0,0,1-14.32-17.56l8.57-40.76a14.55,14.55,0,0,1-7.42-15.86l3-14.18A14.62,14.62,0,0,1,77.21,218l39.82-.21a13.21,13.21,0,0,1,2,.16,13.07,13.07,0,0,1,2.11-.18l18.22-.1A14.6,14.6,0,0,1,150.76,223l.19.24c6.61-4.69,14.9-7.16,24.05-7.16,14.17,0,21.93,6.24,25.94,11.47,5.76,7.53,7.38,17.81,4.57,29h30.41l5.79-27.26A14.63,14.63,0,0,1,256,217.8h21.59c13,0,22.12,3.52,28,10.75a24.77,24.77,0,0,1,4.32,8,45.54,45.54,0,0,1,14.75-2.29c9.72,0,17.4,2.55,22.86,7.58,6.24-5,14.34-7.58,24.1-7.58,3.71,0,14.67.17,22.75,7.14,6.57-4.67,15.05-7.14,24.59-7.14,8.81,0,19.82,1.12,26.86,9.82a19.12,19.12,0,0,1,1.2,1.64c4.77-18.6,19.2-29.63,39-29.63,14.17,0,21.93,6.24,25.94,11.47a27.45,27.45,0,0,1,4.27,8.22h5.28a14.56,14.56,0,0,1,5.26,1,14.52,14.52,0,0,1,5.26-1h14.77a14.71,14.71,0,0,1,6.25,1.41,43.12,43.12,0,0,1,15.93-2.93,37.61,37.61,0,0,1,15.42,3.11l.48-.24,1.06-5a14.62,14.62,0,0,1,14.24-11.54h15.06a14.58,14.58,0,0,1,14.46,16.3,46.68,46.68,0,0,1,15.75-2.67h.45c7.11,0,13.25,1.36,18.27,4a14.6,14.6,0,0,1,8.16-2.52h14a15,15,0,0,1,2.75.26,28.89,28.89,0,0,1,8-1.74,25.17,25.17,0,0,1,12.29,2.31,27.27,27.27,0,0,1,11.06-2.35,27.73,27.73,0,0,1,16.92,5.3,41.66,41.66,0,0,1,20.85-5.3c11,0,20.08,3.9,25.53,11h0c3.59,4.64,7.21,12.67,4.12,24.52a14.43,14.43,0,0,1-4.07,6.88,29.5,29.5,0,0,1,.27,14.61,34.2,34.2,0,0,1-13.66,21.21,7.78,7.78,0,0,1,0,3.15L769,322a8,8,0,0,1-1.64,3.43,16.18,16.18,0,0,1,.46,8.86,21.72,21.72,0,0,1-3.93,8.51,20.79,20.79,0,0,1-7.72,6.34A23.53,23.53,0,0,1,746,351.27Zm-13.63-7.84a1.3,1.3,0,0,1,1,.45l.3.34a8.47,8.47,0,0,0,.82.88,13.14,13.14,0,0,0,5.25,2.78,22.88,22.88,0,0,0,6.21.74,21.1,21.1,0,0,0,9.13-1.86,18.16,18.16,0,0,0,6.74-5.54,19,19,0,0,0,3.46-7.46,13.24,13.24,0,0,0-.63-8.09,1.35,1.35,0,0,1,.3-1.48,5.27,5.27,0,0,0,1.51-2.72l1.34-6.41a5.32,5.32,0,0,0-.2-2.75,1.33,1.33,0,0,1,.51-1.52,31.59,31.59,0,0,0,13.33-20.1,26.33,26.33,0,0,0-.46-14.05,1.33,1.33,0,0,1,.41-1.44,11.81,11.81,0,0,0,3.87-6.12c2.83-10.81-.42-18.06-3.64-22.23h0c-5-6.4-13.27-9.93-23.44-9.93a38.73,38.73,0,0,0-20.26,5.38,1.34,1.34,0,0,1-1.53-.1,26,26,0,0,0-26.51-2.92,1.26,1.26,0,0,1-1.15,0,22.45,22.45,0,0,0-11.5-2.31,26.29,26.29,0,0,0-7.62,1.71,1.24,1.24,0,0,1-.76.06,11.7,11.7,0,0,0-2.57-.28h-14a11.92,11.92,0,0,0-7.26,2.49,1.34,1.34,0,0,1-1.47.1c-4.75-2.73-10.7-4.12-17.7-4.12h-.43a42.77,42.77,0,0,0-17,3.37,1.33,1.33,0,0,1-1.37-.18,1.3,1.3,0,0,1-.46-1.3l.23-1.12a11.91,11.91,0,0,0-11.65-14.39H600.07a12,12,0,0,0-11.65,9.44l-1.2,5.62a1.32,1.32,0,0,1-.79,1A12.68,12.68,0,0,0,585,240a1.36,1.36,0,0,1-1.24,0,34.5,34.5,0,0,0-14.89-3.13,40.39,40.39,0,0,0-15.49,3,1.33,1.33,0,0,1-1.12,0,11.91,11.91,0,0,0-5.57-1.39H531.92a11.91,11.91,0,0,0-4.74,1,1.36,1.36,0,0,1-1,0,11.89,11.89,0,0,0-4.73-1h-6.25a1.32,1.32,0,0,1-1.27-1,25.34,25.34,0,0,0-4.13-8.3c-3.65-4.76-10.75-10.43-23.84-10.43-19.14,0-32.92,11.06-36.85,29.59-.06.3-.11.6-.17.89l-.08.47a1.32,1.32,0,0,1-2.5.31,19.55,19.55,0,0,0-2.62-4.25c-6.33-7.83-16.58-8.84-24.8-8.84-9.4,0-17.65,2.51-23.88,7.25a1.31,1.31,0,0,1-1.71-.09c-7.38-7-18.2-7.12-21.76-7.16-9.58,0-17.42,2.6-23.29,7.71a1.31,1.31,0,0,1-1.81-.07c-5-5.07-12.33-7.64-21.85-7.64a42.2,42.2,0,0,0-15.15,2.6,1.35,1.35,0,0,1-1.08-.06,1.31,1.31,0,0,1-.67-.84,22.37,22.37,0,0,0-4.23-8.4c-5.33-6.58-13.81-9.77-25.92-9.77H256a12,12,0,0,0-11.65,9.43l-6,28.31a1.33,1.33,0,0,1-1.29,1.05H203.74a1.33,1.33,0,0,1-1.08-.56,1.29,1.29,0,0,1-.17-1.19l.07-.2c.06-.17.12-.34.17-.52,2.89-10.74,1.51-20.54-3.9-27.59-3.64-4.76-10.74-10.43-23.83-10.43-9.09,0-17.23,2.57-23.55,7.43a1.29,1.29,0,0,1-1,.25,1.34,1.34,0,0,1-.89-.59,11.7,11.7,0,0,0-.81-1.14,12,12,0,0,0-9.3-4.38l-18.22.1a11.42,11.42,0,0,0-1.88.17,1.36,1.36,0,0,1-.45,0,10.88,10.88,0,0,0-1.83-.16l-39.8.2a12,12,0,0,0-11.6,9.47l-3,14.18a11.86,11.86,0,0,0,2.42,10,12.13,12.13,0,0,0,4.45,3.38,1.31,1.31,0,0,1,.77,1.48L61.5,300.9a11.9,11.9,0,0,0,11.72,14.37l18.22-.09A11.82,11.82,0,0,0,98.18,313a1.31,1.31,0,0,1,1.51,0,11.79,11.79,0,0,0,6.72,2.09L135.7,315a11.74,11.74,0,0,0,5.57-1.45,1.31,1.31,0,0,1,1.23,0A36.65,36.65,0,0,0,159,317c18.58,0,32-10.16,36.86-27.89a1.33,1.33,0,0,1,1.28-1h33.14a1.32,1.32,0,0,1,1,.49,1.34,1.34,0,0,1,.27,1.11l-2.37,11.17a11.91,11.91,0,0,0,11.65,14.39h23.48c9.43,0,17.41-2.34,23.72-6.94a1.32,1.32,0,0,1,1.76.18c3.52,3.86,10.33,8.46,22.83,8.46,9.45,0,17.66-2.65,23.75-7.66a1.33,1.33,0,0,1,1.8.1c4.86,5,12.06,7.56,21.39,7.56,2.14,0,3.69-.13,4.82-.22l1.48-.13a33.71,33.71,0,0,0,16-5.64,1.33,1.33,0,0,1,1.65.12,23.46,23.46,0,0,0,16.2,5.87,29.07,29.07,0,0,0,10.85-2,1.41,1.41,0,0,1,.79-.06,11.92,11.92,0,0,0,2.73.32H428.8a11.89,11.89,0,0,0,11.84-10.72,1.32,1.32,0,0,1,2.45-.54,23.41,23.41,0,0,0,2,2.88c3.72,4.6,11.05,10.08,24.85,10.08A41.89,41.89,0,0,0,483,315a1.36,1.36,0,0,1,1.3.27,1.33,1.33,0,0,1,.41,1.26l-.38,1.81a11.82,11.82,0,0,0,11.34,14.38,6.78,6.78,0,0,1,.92.1,40.62,40.62,0,0,0,5.26.38c9.07,0,16.27-2.6,22-7.94a1.32,1.32,0,0,1,2.19,1.23,10.5,10.5,0,0,0,0,4.36,1.33,1.33,0,0,1-.55,1.37,5.29,5.29,0,0,0-2.32,4.49,11,11,0,0,0,4.2,8.72c2.41,1.88,5.93,2.76,11.1,2.78a23.42,23.42,0,0,0,8.6-1.37c.55-.22,1.07-.47,1.57-.72a1.32,1.32,0,0,1,1.5.21,5.26,5.26,0,0,0,3.56,1.43l8,0a5.23,5.23,0,0,0,2.06-.44,1.32,1.32,0,0,1,1,0,5.14,5.14,0,0,0,2.05.45h8a5.19,5.19,0,0,0,2.43-.58,1.32,1.32,0,0,1,1.22,0,5.35,5.35,0,0,0,2.42.6h8.1a5.28,5.28,0,0,0,4.06-1.91,1.33,1.33,0,0,1,1.77-.25,13.32,13.32,0,0,0,3.78,1.82,24.64,24.64,0,0,0,7,.84,21.45,21.45,0,0,0,7.85-1.32,18.44,18.44,0,0,0,4.87-2.84,1.31,1.31,0,0,1,1.79.11,11.73,11.73,0,0,0,2.88,2.27,18.36,18.36,0,0,0,8.86,1.84,23,23,0,0,0,10-1.87,20.6,20.6,0,0,0,7.21-6,5.28,5.28,0,0,0,1.11-2.76,1.32,1.32,0,0,1,.22-.61,5.33,5.33,0,0,0,.79-1.87l.19-.91c.16-.8.28-1.57.37-2.32a1.31,1.31,0,0,1,.9-1.09,1.32,1.32,0,0,1,1.38.35l.2.24a5.2,5.2,0,0,0,3.84,1.39,1.31,1.31,0,0,1,1.07.46,1.32,1.32,0,0,1,.29,1.13l-1.48,7.1a5.3,5.3,0,0,0,5.17,6.38h8.15a5.32,5.32,0,0,0,5.18-4.17,1.33,1.33,0,0,1,2.38-.49,11.52,11.52,0,0,0,4.86,3.94,18.67,18.67,0,0,0,7.41,1.26,19.61,19.61,0,0,0,13.24-4.79,1.28,1.28,0,0,1,1-.32,1.34,1.34,0,0,1,.92.49,11.66,11.66,0,0,0,4.46,3.41,18.57,18.57,0,0,0,7.41,1.26,19.57,19.57,0,0,0,13.27-4.81A1.31,1.31,0,0,1,732.33,343.43Z" transform="translate(-58.59 -216.1)" style="fill:#fff"/><path d="M264,273.07c7,.28,11.82.09,10.07,8.34-2,9.57-5.42,9-13.79,9.18Zm5.94-27.93c5.87,0,10.75-.28,9.27,6.72-1.8,8.43-5.09,8-12.49,8.43Zm-5.56,58.23c13.53,0,23-6.15,26.05-20.55,1.87-8.8,1.07-12.59-5.59-16.94l0-.19c6.44-3.12,9.91-8.71,11.23-15,3-14.3-5.95-18.37-18.53-18.37H256l-15.09,71Z" transform="translate(-58.59 -216.1)" style="fill:#fff"/><path d="M316.33,265.88c.73-3.41,2.44-6.16,5.95-6.16s4.06,2.75,3.34,6.16l-5,23.67c-.92,3-2.5,4.64-5.63,4.64s-4-1.62-3.66-4.64ZM296.45,288.6c-2.57,12.12,5.4,16.48,16.2,16.48,11.45,0,19.87-4.46,23.18-16.48L340.42,267c2.54-11.94-2.56-18.18-15.83-18.18-11.64,0-20.65,4.54-23.54,18.18Z" transform="translate(-58.59 -216.1)" style="fill:#fff"/><path d="M372.73,270.05l.1-.95c.14-2,.68-4.08.73-6.07-.21-2.17-1.1-3.31-3.38-3.31-3.88,0-5.19,3-5.91,6.44L359.62,288c-.69,3.32-.35,6.16,3.52,6.16,5.6,0,6.42-8.33,7.27-12.31H385c-.67,3.13-2.47,9.75-3.91,12.58-3.4,6.63-9.73,9.66-16.4,10.33-1.44.09-2.81.29-5.09.29-10.78,0-17.71-4.36-15.14-16.48L349,267c2.9-13.64,10.87-18.19,22.51-18.19,14.83.19,19.33,6.63,15.39,21.22Z" transform="translate(-58.59 -216.1)" style="fill:#fff"/><path d="M416.21,286c-.82,3.4-2.75,8-7.2,8-3.6,0-5.08-2.37-4.38-5.68a10,10,0,0,1,4.95-6.82c2.2-1.42,5-2.27,8.4-3.88Zm-2.09,17.41H428.8a16.78,16.78,0,0,1,0-5.87l6.9-32.48c2.48-11.64-1.95-16.18-16.82-16.18-12.12,0-22.08,5-24.24,18.27h15.06c1.23-4.45,2-8.23,7.52-8.23,3,0,4.19,2.55,3.57,5.48-1.2,5.68-7.88,6.35-14.88,8.52s-14.42,6-17,18c-1.79,8.42,2.28,14.2,10.81,14.2,6,0,9.66-2.28,14.33-6.44Z" transform="translate(-58.59 -216.1)" style="fill:#fff"/><path d="M469.08,279.61l-1.07,5c-.87,4.07-.31,7.66,5,7.66,3.88,0,6.33-3.5,7.09-7.1,1.27-6-3.17-8.24-7-10.89-4.49-2.93-8.27-5.68-10.62-9.28s-3.14-7.95-1.81-14.19c2.84-13.36,12.33-20.17,25.2-20.17,14.49,0,19.82,9.66,16.23,23H486.8c.7-4.17,2.1-9.85-3.31-10.23-3.35-.29-5.74,1.61-6.79,4.74-1.37,4.25.34,6.43,3.17,8.7,5.4,4,10.28,6.44,13.39,10s4.39,8.33,2.56,16.95c-2.9,13.63-12.08,21.21-25.91,21.21-15.25,0-19.87-8.53-17.87-17.9l1.6-7.57Z" transform="translate(-58.59 -216.1)" style="fill:#fff"/><path d="M519.23,284.63h.19l12.5-34.28h14.77L527.48,295.7c-6.85,14.39-9.13,25.57-25.59,25.57-2.66,0-4.36-.48-5.87-.48l2.37-11.17a27.61,27.61,0,0,1,2.86.37c1.54.3,4.66-.56,5.1-2.64.52-2.48.24-6.53.21-9l-.3-48H521.4Z" transform="translate(-58.59 -216.1)" style="fill:#fff"/><path d="M570.32,266.07c.39-3.6,1.35-7.29-3.47-7.29-2.93,0-5.3,1.32-6,4.45-.59,2.84,1.46,4.26,3.49,5.39,8.8,4.45,18.76,7,16.1,19.6-2.52,11.84-12.58,16.86-23.66,16.86-11.92,0-19.18-5.12-15.89-17.9h14.39c-1,3.7-.83,8,3.71,8,3.22,0,5.74-1.61,6.46-5a4.22,4.22,0,0,0-1.12-4.07c-5.37-3.23-13.31-5.49-16.91-10.89a12.33,12.33,0,0,1-1.67-9.94c2.43-11.46,12.58-16.38,23.08-16.38,11,0,18.63,5.49,15.56,17.23Z" transform="translate(-58.59 -216.1)" style="fill:#fff"/><path d="M588.57,261.24l2.32-10.89h6l3.21-15.15h15.06l-3.22,15.15h7.2l-2.31,10.89h-7.19l-6,27.93c-.64,3,.54,3.69,2.53,3.69a18.25,18.25,0,0,1,3.92-.2l-2.26,10.62a70.77,70.77,0,0,1-9.84.85c-8.13,0-11.69-4.17-10-12.21l6.51-30.68Z" transform="translate(-58.59 -216.1)" style="fill:#fff"/><path d="M635.89,269.38l.74-3.5c.79-3.69,2.56-7.1,6.81-7.1,3.88,0,4.37,3.5,4,5.39l-1.11,5.21Zm23.36,9.95,3.21-15.16c2.44-11.45-6.47-15.42-17-15.34-11.66.1-21.23,4.55-24.12,18.19l-4.59,21.58c-2.59,12.12,6,16.57,16.75,16.48,13.11-.2,21.83-6.44,24-20.07h-15c-1.23,4.45-1.73,9.45-7.25,9.18-3.27-.19-4.08-2.66-3.46-5.59l2-9.27Z" transform="translate(-58.59 -216.1)" style="fill:#fff"/><path d="M686.23,250.35l-1.31,6.16h.2A18.4,18.4,0,0,1,698,248.83c4.9-.28,8.93,2.57,9.69,7h.18c3.75-4.73,8.21-7,12.48-7,7.1,0,12.61,3.89,11.08,11.08l-9.23,43.46H707.15l8.06-37.87c.33-2.46-.17-4.54-3.06-4.36a5,5,0,0,0-5,4.36l-8,37.87H684.05l8.05-37.87c0-2.27-.12-4.36-2.67-4.36-3,0-4.58,1.52-5.38,4.36l-8,37.87H660.94l11.28-53Z" transform="translate(-58.59 -216.1)" style="fill:#fff"/><path d="M759.58,266.07c.39-3.6,1.35-7.29-3.47-7.29-2.93,0-5.29,1.32-6,4.45-.61,2.84,1.46,4.26,3.49,5.39,8.81,4.45,18.77,7,16.1,19.6-2.52,11.84-12.58,16.86-23.66,16.86-11.93,0-19.18-5.12-15.9-17.9h14.4c-1,3.7-.83,8,3.71,8,3.21,0,5.74-1.61,6.47-5a4.29,4.29,0,0,0-1.13-4.07c-5.38-3.23-13.32-5.49-16.9-10.89a12.33,12.33,0,0,1-1.68-9.94c2.43-11.46,12.56-16.38,23.08-16.38,11,0,18.62,5.49,15.56,17.23Z" transform="translate(-58.59 -216.1)" style="fill:#fff"/><path d="M117.1,232.35l-3,14.18-10.81.06L91.38,303.26l-18.22.1,11.92-56.68-10.77.06,3-14.18Z" transform="translate(-58.59 -216.1)" style="fill:#fff"/><path d="M139.48,232.23l-11.93,56.68,11.08-.06-3,14.19-29.29.15,14.9-70.86Z" transform="translate(-58.59 -216.1)" style="fill:#fff"/><path d="M226.4,268.84l-2,9.43-17.75.09,2-9.43Z" transform="translate(-58.59 -216.1)" style="fill:#fff"/><path d="M158.17,279.61l-1.07,5c-.87,4.07-.31,7.66,5,7.66,3.89,0,6.34-3.5,7.1-7.1,1.27-6-3.18-8.24-7-10.89-4.48-2.93-8.26-5.68-10.61-9.28s-3.15-7.95-1.81-14.19c2.84-13.36,12.33-20.17,25.2-20.17,14.49,0,19.82,9.66,16.22,23H175.89c.7-4.17,2.09-9.85-3.32-10.23-3.34-.29-5.73,1.61-6.78,4.74-1.37,4.25.34,6.43,3.17,8.7,5.4,4,10.28,6.44,13.39,10s4.39,8.33,2.56,16.95C182,297.5,172.82,305.08,159,305.08c-15.25,0-19.87-8.53-17.87-17.9l1.6-7.57Z" transform="translate(-58.59 -216.1)" style="fill:#fff"/><path d="M528.51,336.59l8.15-.74a3.05,3.05,0,0,0,1,2,3.56,3.56,0,0,0,2.24.61,4.71,4.71,0,0,0,2.66-.69,2,2,0,0,0,1-1.27,1.16,1.16,0,0,0-.63-1.34,14.63,14.63,0,0,0-3.29-.83A32.8,32.8,0,0,1,534,333a4.6,4.6,0,0,1-2.32-2.1,4.8,4.8,0,0,1-.41-3.37,6.83,6.83,0,0,1,2-3.56,9.34,9.34,0,0,1,3.79-2.22,19,19,0,0,1,5.83-.73,18.3,18.3,0,0,1,5.42.58,5.48,5.48,0,0,1,2.62,1.78,7.18,7.18,0,0,1,1.31,3.25l-7.79.74a2,2,0,0,0-.68-1.48,3.45,3.45,0,0,0-2.16-.64,3.78,3.78,0,0,0-2.09.48,1.89,1.89,0,0,0-.87,1.17,1,1,0,0,0,.55,1.16,11.51,11.51,0,0,0,3.29.72,21,21,0,0,1,5.72,1.26,4.76,4.76,0,0,1,2.86,5.6,7.92,7.92,0,0,1-1.83,3.52,9.86,9.86,0,0,1-4,2.72,18.33,18.33,0,0,1-6.65,1c-3.84,0-6.45-.56-7.86-1.65A5.7,5.7,0,0,1,528.51,336.59Z" transform="translate(-58.59 -216.1)" style="fill:#fff"/><path d="M559.79,313.57l8.05,0-1.14,5.46-8.05,0Zm-1.66,8,8,0-4.37,20.91h-8Z" transform="translate(-58.59 -216.1)" style="fill:#fff"/><path d="M571.32,321.56h7.5L578.1,325a15.32,15.32,0,0,1,4-3,10.29,10.29,0,0,1,4.38-.89c2.23,0,3.83.67,4.82,2s1.19,3.37.61,6.12l-2.77,13.29h-8.1l2.4-11.5a3.78,3.78,0,0,0-.14-2.79,2.13,2.13,0,0,0-1.89-.82,3.64,3.64,0,0,0-2.61,1.1,7.8,7.8,0,0,0-1.73,3.95L575,342.49l-8,0Z" transform="translate(-58.59 -216.1)" style="fill:#fff"/><path d="M611.35,334.36l7.47.88a14,14,0,0,1-2.94,4.13,13.07,13.07,0,0,1-4.25,2.7,16.2,16.2,0,0,1-5.91.95,19.38,19.38,0,0,1-5.44-.63,7.43,7.43,0,0,1-5.24-5.28,10.94,10.94,0,0,1,.13-5,13.84,13.84,0,0,1,2.23-5.37,13.35,13.35,0,0,1,2.8-2.82,13.64,13.64,0,0,1,3.27-1.85,17.66,17.66,0,0,1,6.24-.95c3.43,0,5.92.62,7.46,1.85a7.46,7.46,0,0,1,2.67,5.36l-7.79,1a2.71,2.71,0,0,0-.87-2,3.59,3.59,0,0,0-2.38-.69,5.07,5.07,0,0,0-3.53,1.42,7.88,7.88,0,0,0-2.14,4.31,5,5,0,0,0,.41,3.92,3.26,3.26,0,0,0,2.85,1.34,5.11,5.11,0,0,0,2.83-.8A6.44,6.44,0,0,0,611.35,334.36Z" transform="translate(-58.59 -216.1)" style="fill:#fff"/><path d="M646.07,334.15l-16.13,0a4.43,4.43,0,0,0,.44,2.88,3.05,3.05,0,0,0,2.76,1.36,5.19,5.19,0,0,0,2.38-.58,7.33,7.33,0,0,0,1.69-1.32l7.77.75a15.44,15.44,0,0,1-5.33,4.51,17.86,17.86,0,0,1-7.66,1.35,13.54,13.54,0,0,1-6.33-1.18,7.15,7.15,0,0,1-3.18-3.73,10.14,10.14,0,0,1-.32-6,13.28,13.28,0,0,1,4.81-7.93,14.41,14.41,0,0,1,9.34-3,13.85,13.85,0,0,1,6.84,1.37,6.85,6.85,0,0,1,3.15,3.95,13.43,13.43,0,0,1,0,6.72Zm-7.38-3.85a4.58,4.58,0,0,0-.56-3.33,3,3,0,0,0-2.47-1,4.59,4.59,0,0,0-3.39,1.51,6.86,6.86,0,0,0-1.51,2.81Z" transform="translate(-58.59 -216.1)" style="fill:#fff"/><path d="M677.48,313.33l-6.13,29.36-8.15,0,4-19.24a32.38,32.38,0,0,1-4.34,2.42,37.32,37.32,0,0,1-5,1.76l1.37-6.57a25.44,25.44,0,0,0,7-3.16,17.5,17.5,0,0,0,4.51-4.57Z" transform="translate(-58.59 -216.1)" style="fill:#fff"/><path d="M681.82,336.23l8.22-1a3.52,3.52,0,0,0,.57,2.36,2.16,2.16,0,0,0,1.7.7,4.28,4.28,0,0,0,3.43-1.95,21.31,21.31,0,0,0,2.46-6.08,13.14,13.14,0,0,1-3.42,2.16,9.47,9.47,0,0,1-3.66.68,7.1,7.1,0,0,1-6-2.77,8.22,8.22,0,0,1-1.23-7,12.51,12.51,0,0,1,2.46-5.24,12.14,12.14,0,0,1,4.5-3.57,14.93,14.93,0,0,1,6.27-1.19,12.32,12.32,0,0,1,6.67,1.5A7.81,7.81,0,0,1,707,319.6a18.85,18.85,0,0,1-.22,8.56q-1.63,7.81-5.69,11.45a14.33,14.33,0,0,1-9.92,3.61,13.53,13.53,0,0,1-5.29-.81,6.19,6.19,0,0,1-2.83-2.34A8.27,8.27,0,0,1,681.82,336.23Zm17.52-12.85a4.66,4.66,0,0,0-.42-3.68,3,3,0,0,0-2.61-1.33,4.14,4.14,0,0,0-2.91,1.19,6.6,6.6,0,0,0-1.81,3.61,4.88,4.88,0,0,0,.33,3.7,2.73,2.73,0,0,0,2.47,1.28,4.43,4.43,0,0,0,3.08-1.23A6.31,6.31,0,0,0,699.34,323.38Z" transform="translate(-58.59 -216.1)" style="fill:#fff"/><path d="M708.84,336.28l8.22-1a3.49,3.49,0,0,0,.57,2.37,2.15,2.15,0,0,0,1.7.69,4.31,4.31,0,0,0,3.43-1.94,21.55,21.55,0,0,0,2.46-6.09,12.88,12.88,0,0,1-3.42,2.16,9.3,9.3,0,0,1-3.67.68,7.1,7.1,0,0,1-6-2.76,8.24,8.24,0,0,1-1.22-7,12.51,12.51,0,0,1,2.46-5.24,12.07,12.07,0,0,1,4.5-3.57,14.9,14.9,0,0,1,6.27-1.19,12.32,12.32,0,0,1,6.67,1.5,7.75,7.75,0,0,1,3.21,4.73,18.68,18.68,0,0,1-.21,8.56q-1.63,7.82-5.69,11.45a14.35,14.35,0,0,1-9.92,3.61,13.53,13.53,0,0,1-5.29-.81,6.27,6.27,0,0,1-2.84-2.34A8.38,8.38,0,0,1,708.84,336.28Zm17.52-12.85a4.66,4.66,0,0,0-.42-3.68,3,3,0,0,0-2.61-1.33,4.23,4.23,0,0,0-2.91,1.19,6.54,6.54,0,0,0-1.81,3.61,4.92,4.92,0,0,0,.32,3.7,2.78,2.78,0,0,0,2.47,1.29,4.49,4.49,0,0,0,3.09-1.24A6.24,6.24,0,0,0,726.36,323.43Z" transform="translate(-58.59 -216.1)" style="fill:#fff"/><path d="M743.44,313.94l19.12,0-1.33,6.41-13,0-1.59,4.33a16.64,16.64,0,0,1,2.85-.94,12,12,0,0,1,2.67-.31q4.35,0,6.51,2.63a7.47,7.47,0,0,1,1.34,6.61,13.71,13.71,0,0,1-2.52,5.37,12.7,12.7,0,0,1-4.78,3.93,15.86,15.86,0,0,1-6.84,1.35,18.53,18.53,0,0,1-4.8-.55,7.85,7.85,0,0,1-3.14-1.63,7,7,0,0,1-1.82-2.43,10.33,10.33,0,0,1-.78-3.39l8.33-.87a4.06,4.06,0,0,0,.77,3,3,3,0,0,0,2.38,1,4.41,4.41,0,0,0,3-1.26,7,7,0,0,0,1.88-3.79c.36-1.72.26-3-.32-3.78a3.09,3.09,0,0,0-2.69-1.21,5.7,5.7,0,0,0-2.38.56,9.29,9.29,0,0,0-2.09,1.5l-6.66-1Z" transform="translate(-58.59 -216.1)" style="fill:#fff"/></svg>